<svg width="1151" height="768" viewBox="0 0 1151 768" fill="none" xmlns="http://www.w3.org/2000/svg">
<path d="M930.669 604.765C931.775 606.057 933.285 606.082 934.673 606.044C942.699 605.833 950.746 606.421 958.772 606.376C966.358 606.332 972.632 607.035 973.425 592.53C973.592 589.473 973.911 569.411 975.043 554.152H921.254C923.282 569.718 925.514 585.412 928.884 600.198C929.281 601.893 929.735 603.671 930.669 604.765Z" fill="#FB8C00"/>
<path d="M947.784 587.843C953.757 587.843 958.6 583.001 958.6 577.028C958.6 571.055 953.757 566.213 947.784 566.213C941.811 566.213 936.969 571.055 936.969 577.028C936.969 583.001 941.811 587.843 947.784 587.843Z" fill="white"/>
<path d="M938.664 526.972C935.99 526.358 933.432 525.379 931.187 523.806C927.119 520.96 924.356 515.818 925.514 510.996C927.605 502.292 940.448 498.973 941.312 490.064C941.657 486.521 939.885 483.138 939.38 479.614C938.875 476.09 940.576 471.581 944.132 471.447C945.578 477.945 949.921 483.745 955.747 486.969C958.453 488.465 961.484 489.45 963.851 491.439C966.217 493.428 967.765 496.933 966.288 499.651C965.271 501.531 963.16 502.484 961.388 503.692C959.617 504.901 957.967 506.954 958.613 508.994C958.932 510.005 959.757 510.759 960.563 511.456C963.211 513.746 973.042 518.709 968.967 523.435C967.727 524.874 965.808 525.494 963.966 525.967C957.89 527.528 951.577 528.161 945.309 527.841C943.09 527.72 940.838 527.47 938.664 526.972Z" fill="#F44336"/>
<path d="M971.231 550.781H923.966C919.105 550.781 915.133 546.804 915.133 541.949C915.133 537.089 919.112 533.117 923.966 533.117H971.231C976.092 533.117 980.064 537.095 980.064 541.949C980.064 546.81 976.092 550.781 971.231 550.781Z" fill="#FFD095"/>
<path d="M438.488 662.739C591.957 662.739 716.369 652.11 716.369 638.999C716.369 625.888 591.957 615.26 438.488 615.26C285.018 615.26 160.607 625.888 160.607 638.999C160.607 652.11 285.018 662.739 438.488 662.739Z" fill="#303030"/>
<path d="M915.236 425.298C922.188 420.438 929.633 413.786 929.031 405.325C918.446 405.069 907.816 407.289 898.216 411.753C894.833 407.269 900.32 401.52 905.13 398.629C915.555 392.355 925.987 386.082 936.412 379.814C932.754 376.425 927.803 374.461 922.815 374.429C918.939 365.047 937.487 358.812 935.817 348.797C934.941 343.54 928.341 340.93 923.192 342.305C918.043 343.68 914.116 347.741 910.471 351.63C912.78 345.017 917.039 339.3 920.429 333.166C923.819 327.033 926.403 319.947 924.906 313.104C923.409 306.261 916.476 300.288 909.69 302.04C905.002 303.249 901.823 307.527 899.367 311.704C894.02 320.785 890.209 330.762 888.136 341.09C886.895 347.255 883.282 355.582 877.314 353.593C874.091 352.519 872.741 348.809 870.637 346.143C864.747 338.666 851.827 340.214 845.783 347.562C839.739 354.911 839.572 365.693 842.63 374.704C844.516 380.268 847.043 387.514 842.387 391.096C837.801 394.626 830.484 390.59 825.597 393.679C819.688 397.414 822.982 406.323 823.685 413.281C824.523 421.569 820.551 429.474 817.264 437.123C813.976 444.778 811.296 453.61 814.609 461.246C824.574 484.206 901.369 434.987 915.236 425.298Z" fill="#F44336"/>
<path d="M929.23 480.49C931.539 478.284 933.911 475.502 933.521 472.329C933.112 469.017 929.665 466.765 926.339 466.542C923.007 466.318 919.789 467.629 916.713 468.908C914.845 466.407 917.634 463.101 920.231 461.374C931.814 453.661 946.55 446.825 949.37 433.196C949.607 432.058 949.722 430.785 949.07 429.819C948.424 428.86 947.196 428.489 946.051 428.349C939.111 427.472 932.792 432.339 925.897 433.51C918.312 434.795 910.663 431.514 902.968 431.738C896.771 431.917 890.893 434.347 885.181 436.739C874.564 441.184 863.672 445.808 855.46 453.866C843.122 465.972 825.642 501.121 851.603 507.958C876.7 514.577 911.66 497.259 929.23 480.49Z" fill="#FB8C00"/>
<path d="M835.748 442.681C835.46 442.681 835.178 442.578 834.948 442.374C834.456 441.932 834.411 441.171 834.852 440.679L895.018 373.368C895.46 372.875 896.221 372.83 896.713 373.272C897.206 373.713 897.25 374.474 896.809 374.966L836.643 442.278C836.406 442.546 836.08 442.681 835.748 442.681Z" fill="white"/>
<path d="M868.725 405.792C868.13 405.792 867.618 405.351 867.535 404.743L862.649 366.557C862.566 365.898 863.032 365.303 863.685 365.214C864.312 365.137 864.938 365.591 865.028 366.25L869.914 404.436C869.998 405.095 869.531 405.69 868.878 405.779C868.827 405.786 868.776 405.792 868.725 405.792Z" fill="white"/>
<path d="M832.147 510.12C831.763 510.12 831.379 509.934 831.149 509.582C830.785 509.032 830.932 508.284 831.488 507.92L899.579 462.756C900.122 462.391 900.871 462.538 901.242 463.095C901.606 463.645 901.459 464.393 900.903 464.757L832.812 509.921C832.601 510.056 832.371 510.12 832.147 510.12Z" fill="white"/>
<path d="M872.492 483.956C872.396 483.956 872.294 483.943 872.192 483.918C871.552 483.752 871.168 483.099 871.334 482.453L878.978 453.092C879.144 452.453 879.796 452.063 880.436 452.235C881.075 452.402 881.459 453.054 881.293 453.7L873.65 483.061C873.515 483.598 873.023 483.956 872.492 483.956Z" fill="white"/>
<path d="M521.909 487.55C513.627 481.385 505.338 475.22 497.055 469.055C472.565 450.835 447.692 432.237 429.604 407.653C422.454 397.932 416.358 387.143 414.03 375.305C413.551 372.869 413.282 370.17 414.599 368.066C416.844 364.497 422.057 364.747 426.189 365.591C438.584 368.13 450.672 372.172 462.108 377.589C455.22 352.109 425.089 339.875 413.608 316.11C411.747 312.254 410.404 307.841 411.587 303.729C412.348 301.087 414.101 298.811 416.192 297.02C423.291 290.931 433.864 290.375 442.767 293.221C451.67 296.073 459.307 301.829 466.751 307.483C456.492 300.019 448.421 289.588 443.765 277.783C441.839 272.89 440.522 267.237 442.792 262.498C446.636 254.459 458.481 253.979 466.24 258.36C481.212 266.808 485.996 285.642 490.269 302.296C494.541 318.95 501.89 337.694 518.302 342.817C520.272 343.431 522.415 343.879 523.873 345.337C526.713 348.183 525.273 353.222 522.491 356.126C519.709 359.029 515.897 360.807 513.211 363.8C507.192 370.509 508.58 381.01 511.823 389.42C515.066 397.83 519.863 406.08 519.581 415.091C519.229 426.296 522.255 439.624 522.837 450.816C523.105 455.9 513.927 457.39 515.13 462.334C516.332 467.277 516.511 472.944 513.422 476.992C510.333 481.04 503.054 481.807 500.515 477.401" fill="#F44336"/>
<path d="M537.259 473.673C536.844 473.673 536.441 473.455 536.223 473.072C510.416 428.31 461.187 343.175 458.852 339.997C458.494 339.632 458.405 339.057 458.66 338.59C458.98 338.008 459.709 337.803 460.285 338.117C460.675 338.328 461.577 338.826 538.295 471.876C538.628 472.445 538.43 473.18 537.854 473.513C537.669 473.622 537.458 473.673 537.259 473.673Z" fill="white"/>
<path d="M504.308 416.632C504.244 416.632 504.18 416.626 504.116 416.62L453.467 408.466C452.815 408.363 452.367 407.743 452.476 407.091C452.578 406.438 453.211 405.991 453.844 406.099L504.493 414.253C505.146 414.356 505.593 414.976 505.485 415.628C505.395 416.217 504.883 416.632 504.308 416.632Z" fill="white"/>
<path d="M222.429 592.217C226.152 589.927 227.923 584.907 226.465 580.789C224.086 574.061 217.927 576.325 213.552 572.794C208.397 568.631 214.633 562.088 214.287 557.177C213.91 551.773 209.043 546.548 207.578 541.329C204.214 529.319 217.869 538.285 221.764 536.884C223.395 536.296 224.463 534.659 224.834 532.97C225.787 528.654 223.971 525.168 226.337 521.081C228.62 517.136 231.991 515.358 231.019 509.998C230.469 506.967 228.595 504.185 228.646 501.102C228.659 500.22 228.908 499.228 229.682 498.794C230.264 498.467 231 498.557 231.633 498.774C233.737 499.51 235.119 501.473 236.807 502.925C238.502 504.377 241.22 505.272 242.845 503.744C243.926 502.727 244.034 501.083 244.252 499.619C244.648 496.971 246.51 495.129 248.812 496.664C251.326 498.333 250.366 504.901 249.989 507.255C249.388 510.99 248.48 514.865 249.586 518.485C251.422 524.471 256.436 517.762 258.623 515.78C260.414 514.155 263.408 513.183 265.128 514.878C268.55 518.255 263.049 522.763 262.32 525.967C261.975 527.49 262.423 529.312 263.772 530.099C267.731 532.395 271.083 528.308 271.684 534.409C272.093 538.592 268.313 542.583 270.66 546.759C272.713 550.411 279.544 551.965 276.839 557.094C275.182 560.24 268.045 560.1 268.422 564.576C268.665 567.499 273.059 568.823 273.059 571.752C273.059 573.958 270.494 575.263 268.288 575.372C266.081 575.487 263.766 574.969 261.732 575.832C259.423 576.811 258.093 579.644 258.802 582.042C259.423 584.133 261.367 586.033 260.76 588.124C260.024 590.637 256.538 590.733 253.954 590.324C243.388 588.674 232.068 587.568 222.429 592.217Z" fill="#F44336"/>
<path d="M242.391 591.693C241.725 591.693 241.195 591.156 241.195 590.497V543.331C241.195 542.666 241.732 542.135 242.391 542.135C243.049 542.135 243.587 542.672 243.587 543.331V590.497C243.593 591.156 243.056 591.693 242.391 591.693Z" fill="white"/>
<path d="M242.391 573.331C242.122 573.331 241.86 573.242 241.636 573.063C241.124 572.647 241.041 571.892 241.463 571.381L253.839 556.128C254.261 555.61 255.016 555.54 255.528 555.955C256.039 556.371 256.123 557.126 255.7 557.637L243.324 572.89C243.088 573.184 242.742 573.331 242.391 573.331Z" fill="white"/>
<path d="M242.391 560.451C242.116 560.451 241.841 560.362 241.617 560.17L226.874 547.763C226.369 547.334 226.305 546.58 226.727 546.074C227.156 545.569 227.91 545.505 228.416 545.927L243.158 558.334C243.663 558.763 243.727 559.518 243.305 560.023C243.069 560.311 242.736 560.451 242.391 560.451Z" fill="white"/>
<path d="M220.363 585.604C222.301 598.497 224.054 611.979 227.316 624.418C227.584 625.454 227.904 626.541 228.563 627.206C229.337 627.993 230.398 628.006 231.371 627.986C236.999 627.858 242.64 628.217 248.275 628.185C253.596 628.159 257.997 628.588 258.553 619.749C258.745 616.686 259.231 585.604 262.058 585.604C262.039 585.604 220.363 585.604 220.363 585.604Z" fill="#FB8C00"/>
<path d="M258.246 593.311H224.169C219.928 593.311 216.462 589.844 216.462 585.604C216.462 581.364 219.928 577.898 224.169 577.898H258.246C262.487 577.898 265.953 581.364 265.953 585.604C265.953 589.838 262.487 593.311 258.246 593.311Z" fill="#FFD095"/>
<path d="M887.842 578.141C886.736 578.691 885.009 579.005 882.482 579.005C814.526 578.998 746.589 578.979 678.621 579.164C644.582 579.254 610.537 579.011 576.498 579.088C559.306 579.126 542.114 579.248 524.928 579.535C516.332 579.682 507.736 579.868 499.14 580.105C492.821 580.277 485.152 581.454 479.133 578.825C477.08 577.93 475.142 576.728 474.324 574.521C474.189 573.997 474.157 573.473 474.221 572.935C474.887 568.356 481.903 560.669 484.66 556.877C490.32 549.093 496.108 540.626 506.258 537.927C512.162 536.36 518.391 536.386 524.519 536.424C632.027 536.424 739.541 537.019 847.043 537.351C853.784 537.371 862.105 538.362 866.793 543.51C872.754 550.053 877.999 557.132 882.821 564.461C885.731 568.842 892.703 575.73 887.842 578.141Z" fill="#303030"/>
<path d="M841.594 541.95H519.581C503.764 541.95 490.825 529.012 490.825 513.196V284.728C490.825 268.912 503.764 255.975 519.581 255.975H841.6C857.417 255.975 870.356 268.912 870.356 284.728V513.196C870.356 529.012 857.411 541.95 841.594 541.95Z" fill="#606060"/>
<path d="M529.603 268.401C513.204 268.401 499.786 281.818 499.786 298.216V454.5C596.837 396.263 691.758 334.721 783.417 268.401H529.603Z" fill="#202020"/>
<path d="M829.934 268.401H783.417C691.751 334.714 596.837 396.263 499.786 454.5V488.28C499.786 504.678 513.204 518.095 529.603 518.095H829.934C846.333 518.095 859.752 504.678 859.752 488.28V298.216C859.752 281.818 846.333 268.401 829.934 268.401Z" fill="#222222"/>
<path d="M700.93 528.903H673.728C673.242 528.903 672.845 528.507 672.845 528.02V527.432C672.845 526.946 673.242 526.55 673.728 526.55H700.93C701.416 526.55 701.812 526.946 701.812 527.432V528.02C701.812 528.507 701.416 528.903 700.93 528.903Z" fill="#606060"/>
<path d="M527.013 265.574C528.476 265.574 529.661 264.389 529.661 262.926C529.661 261.464 528.476 260.279 527.013 260.279C525.551 260.279 524.365 261.464 524.365 262.926C524.365 264.389 525.551 265.574 527.013 265.574Z" fill="#606060"/>
<path d="M538.417 265.574C539.879 265.574 541.065 264.389 541.065 262.926C541.065 261.464 539.879 260.279 538.417 260.279C536.955 260.279 535.769 261.464 535.769 262.926C535.769 264.389 536.955 265.574 538.417 265.574Z" fill="white"/>
<path d="M549.923 265.574C551.385 265.574 552.571 264.389 552.571 262.926C552.571 261.464 551.385 260.279 549.923 260.279C548.461 260.279 547.275 261.464 547.275 262.926C547.275 264.389 548.461 265.574 549.923 265.574Z" fill="#4B369D"/>
<path d="M520.873 555.975H510.23C508.829 555.975 507.685 554.83 507.685 553.429V551.747C507.685 550.347 508.829 549.202 510.23 549.202H520.873C522.274 549.202 523.418 550.347 523.418 551.747V553.429C523.418 554.83 522.274 555.975 520.873 555.975Z" fill="#606060"/>
<path d="M547.038 555.975H536.396C534.995 555.975 533.85 554.83 533.85 553.429V551.747C533.85 550.347 534.995 549.202 536.396 549.202H547.038C548.439 549.202 549.584 550.347 549.584 551.747V553.429C549.59 554.83 548.439 555.975 547.038 555.975Z" fill="#606060"/>
<path d="M573.21 555.975H562.568C561.167 555.975 560.022 554.83 560.022 553.429V551.747C560.022 550.347 561.167 549.202 562.568 549.202H573.21C574.611 549.202 575.756 550.347 575.756 551.747V553.429C575.756 554.83 574.611 555.975 573.21 555.975Z" fill="#606060"/>
<path d="M599.376 555.975H588.733C587.332 555.975 586.188 554.83 586.188 553.429V551.747C586.188 550.347 587.332 549.202 588.733 549.202H599.376C600.776 549.202 601.921 550.347 601.921 551.747V553.429C601.921 554.83 600.776 555.975 599.376 555.975Z" fill="#606060"/>
<path d="M625.541 555.975H614.898C613.498 555.975 612.353 554.83 612.353 553.429V551.747C612.353 550.347 613.498 549.202 614.898 549.202H625.541C626.942 549.202 628.087 550.347 628.087 551.747V553.429C628.093 554.83 626.942 555.975 625.541 555.975Z" fill="#606060"/>
<path d="M651.713 555.975H641.07C639.67 555.975 638.525 554.83 638.525 553.429V551.747C638.525 550.347 639.67 549.202 641.07 549.202H651.713C653.114 549.202 654.259 550.347 654.259 551.747V553.429C654.259 554.83 653.114 555.975 651.713 555.975Z" fill="#606060"/>
<path d="M677.878 555.975H667.236C665.835 555.975 664.69 554.83 664.69 553.429V551.747C664.69 550.347 665.835 549.202 667.236 549.202H677.878C679.279 549.202 680.424 550.347 680.424 551.747V553.429C680.424 554.83 679.279 555.975 677.878 555.975Z" fill="#606060"/>
<path d="M704.051 555.975H693.408C692.007 555.975 690.862 554.83 690.862 553.429V551.747C690.862 550.347 692.007 549.202 693.408 549.202H704.051C705.451 549.202 706.596 550.347 706.596 551.747V553.429C706.596 554.83 705.451 555.975 704.051 555.975Z" fill="#606060"/>
<path d="M730.216 555.975H719.573C718.173 555.975 717.028 554.83 717.028 553.429V551.747C717.028 550.347 718.173 549.202 719.573 549.202H730.216C731.617 549.202 732.761 550.347 732.761 551.747V553.429C732.761 554.83 731.617 555.975 730.216 555.975Z" fill="#606060"/>
<path d="M756.381 555.975H745.739C744.338 555.975 743.193 554.83 743.193 553.429V551.747C743.193 550.347 744.338 549.202 745.739 549.202H756.381C757.782 549.202 758.927 550.347 758.927 551.747V553.429C758.933 554.83 757.782 555.975 756.381 555.975Z" fill="#606060"/>
<path d="M782.553 555.975H771.911C770.51 555.975 769.365 554.83 769.365 553.429V551.747C769.365 550.347 770.51 549.202 771.911 549.202H782.553C783.954 549.202 785.099 550.347 785.099 551.747V553.429C785.099 554.83 783.954 555.975 782.553 555.975Z" fill="#606060"/>
<path d="M808.719 555.975H798.076C796.675 555.975 795.531 554.83 795.531 553.429V551.747C795.531 550.347 796.675 549.202 798.076 549.202H808.719C810.12 549.202 811.264 550.347 811.264 551.747V553.429C811.264 554.83 810.12 555.975 808.719 555.975Z" fill="#606060"/>
<path d="M834.884 555.975H824.242C822.841 555.975 821.696 554.83 821.696 553.429V551.747C821.696 550.347 822.841 549.202 824.242 549.202H834.884C836.285 549.202 837.43 550.347 837.43 551.747V553.429C837.436 554.83 836.292 555.975 834.884 555.975Z" fill="#606060"/>
<path d="M352.329 391.077H249.938C232.144 391.077 217.587 376.521 217.587 358.729C217.587 340.937 232.144 326.381 249.938 326.381H352.329C370.122 326.381 384.679 340.937 384.679 358.729C384.679 376.514 370.122 391.077 352.329 391.077Z" fill="#303030"/>
<path d="M286.305 374.142C285.703 374.142 285.102 373.918 284.635 373.464L270.347 359.573L284.59 345.017C285.518 344.071 287.034 344.052 287.98 344.979C288.927 345.906 288.94 347.422 288.019 348.368L277.133 359.49L287.974 370.029C288.921 370.95 288.94 372.466 288.019 373.419C287.558 373.899 286.931 374.142 286.305 374.142Z" fill="#FB8C00"/>
<path d="M313.481 374.142C312.879 374.142 312.272 373.918 311.805 373.457C310.858 372.53 310.845 371.014 311.766 370.068L322.652 358.946L311.811 348.407C310.865 347.486 310.845 345.97 311.766 345.017C312.688 344.064 314.203 344.045 315.156 344.966L329.445 358.857L315.201 373.413C314.728 373.899 314.107 374.142 313.481 374.142Z" fill="#FB8C00"/>
<path d="M292.413 385.103C292.17 385.103 291.914 385.065 291.664 384.982C290.411 384.572 289.72 383.217 290.136 381.957L305.102 336.236C305.511 334.976 306.854 334.286 308.127 334.708C309.381 335.117 310.072 336.473 309.656 337.733L294.69 383.453C294.363 384.457 293.423 385.103 292.413 385.103Z" fill="#FB8C00"/>
<path d="M903.941 191.311H858.703V146.077H903.941V191.311ZM861.101 188.913H901.542V148.475H861.101V188.913Z" fill="#C0C0C0"/>
<path d="M901.889 146.434L859.051 189.268L860.747 190.964L903.585 148.13L901.889 146.434Z" fill="#C0C0C0"/>
<path d="M860.747 146.429L859.051 148.125L901.889 190.959L903.584 189.263L860.747 146.429Z" fill="#C0C0C0"/>
<path d="M946.78 191.311H901.542V146.077H946.78V191.311ZM903.94 188.913H944.382V148.475H903.94V188.913Z" fill="#C0C0C0"/>
<path d="M944.727 146.433L901.89 189.267L903.586 190.963L946.423 148.129L944.727 146.433Z" fill="#C0C0C0"/>
<path d="M903.586 146.429L901.89 148.125L944.727 190.958L946.423 189.263L903.586 146.429Z" fill="#C0C0C0"/>
<path d="M818.268 619.66H773.03V574.425H818.268V619.66ZM775.428 617.261H815.87V576.824H775.428V617.261Z" fill="#C0C0C0"/>
<path d="M816.207 574.781L773.37 617.615L775.066 619.311L817.903 576.477L816.207 574.781Z" fill="#C0C0C0"/>
<path d="M775.07 574.781L773.375 576.477L816.212 619.311L817.908 617.615L775.07 574.781Z" fill="#C0C0C0"/>
<path d="M818.268 576.823H773.03V531.589H818.268V576.823ZM775.428 574.425H815.87V533.987H775.428V574.425Z" fill="#C0C0C0"/>
<path d="M816.207 531.945L773.37 574.779L775.066 576.475L817.903 533.641L816.207 531.945Z" fill="#C0C0C0"/>
<path d="M775.07 531.946L773.374 533.641L816.212 576.475L817.908 574.779L775.07 531.946Z" fill="#C0C0C0"/>
<path d="M818.268 533.987H773.03V488.753H818.268V533.987ZM775.428 531.595H815.87V491.158H775.428V531.595Z" fill="#C0C0C0"/>
<path d="M816.211 489.114L773.374 531.948L775.069 533.644L817.907 490.81L816.211 489.114Z" fill="#C0C0C0"/>
<path d="M775.069 489.11L773.374 490.806L816.211 533.64L817.907 531.944L775.069 489.11Z" fill="#C0C0C0"/>
<path d="M818.268 491.151H773.03V445.917H818.268V491.151ZM775.428 488.759H815.87V448.321H775.428V488.759Z" fill="#C0C0C0"/>
<path d="M816.21 446.279L773.373 489.113L775.069 490.809L817.906 447.975L816.21 446.279Z" fill="#C0C0C0"/>
<path d="M775.069 446.274L773.373 447.97L816.21 490.804L817.906 489.108L775.069 446.274Z" fill="#C0C0C0"/>
<path d="M818.268 448.322H773.03V403.087H818.268V448.322ZM775.428 445.923H815.87V405.485H775.428V445.923Z" fill="#C0C0C0"/>
<path d="M816.21 403.443L773.373 446.277L775.069 447.973L817.906 405.139L816.21 403.443Z" fill="#C0C0C0"/>
<path d="M775.069 403.439L773.373 405.135L816.21 447.969L817.906 446.273L775.069 403.439Z" fill="#C0C0C0"/>
<path d="M818.268 405.485H773.03V360.251H818.268V405.485ZM775.428 403.087H815.87V362.649H775.428V403.087Z" fill="#C0C0C0"/>
<path d="M816.209 360.608L773.372 403.442L775.068 405.138L817.905 362.304L816.209 360.608Z" fill="#C0C0C0"/>
<path d="M775.068 360.604L773.372 362.299L816.209 405.133L817.905 403.437L775.068 360.604Z" fill="#C0C0C0"/>
<path d="M818.268 362.649H773.03V317.415H818.268V362.649ZM775.428 360.251H815.87V319.813H775.428V360.251Z" fill="#C0C0C0"/>
<path d="M816.208 317.772L773.371 360.606L775.067 362.302L817.904 319.468L816.208 317.772Z" fill="#C0C0C0"/>
<path d="M775.072 317.772L773.376 319.468L816.213 362.302L817.909 360.606L775.072 317.772Z" fill="#C0C0C0"/>
<path d="M818.268 319.813H773.03V274.579H818.268V319.813ZM775.428 317.415H815.87V276.977H775.428V317.415Z" fill="#C0C0C0"/>
<path d="M816.213 274.941L773.375 317.775L775.071 319.471L817.909 276.637L816.213 274.941Z" fill="#C0C0C0"/>
<path d="M775.071 274.937L773.375 276.633L816.213 319.467L817.909 317.771L775.071 274.937Z" fill="#C0C0C0"/>
<path d="M818.268 276.977H773.03V231.742H818.268V276.977ZM775.428 274.585H815.87V234.147H775.428V274.585Z" fill="#C0C0C0"/>
<path d="M816.212 232.106L773.375 274.94L775.071 276.636L817.908 233.802L816.212 232.106Z" fill="#C0C0C0"/>
<path d="M775.071 232.101L773.375 233.797L816.212 276.631L817.908 274.935L775.071 232.101Z" fill="#C0C0C0"/>
<path d="M818.268 234.147H773.03V188.913H818.268V234.147ZM775.428 231.749H815.87V191.311H775.428V231.749Z" fill="#C0C0C0"/>
<path d="M816.211 189.271L773.374 232.104L775.07 233.8L817.907 190.966L816.211 189.271Z" fill="#C0C0C0"/>
<path d="M775.07 189.266L773.374 190.962L816.211 233.796L817.907 232.1L775.07 189.266Z" fill="#C0C0C0"/>
<path d="M818.268 191.311H773.03V146.077H818.268V191.311ZM775.428 188.913H815.87V148.475H775.428V188.913Z" fill="#C0C0C0"/>
<path d="M816.211 146.435L773.374 189.269L775.069 190.965L817.907 148.131L816.211 146.435Z" fill="#C0C0C0"/>
<path d="M775.069 146.43L773.374 148.126L816.211 190.96L817.907 189.264L775.069 146.43Z" fill="#C0C0C0"/>
<path d="M818.268 148.475H773.03V103.24H818.268V148.475ZM775.428 146.077H815.87V105.639H775.428V146.077Z" fill="#C0C0C0"/>
<path d="M816.21 103.6L773.373 146.434L775.069 148.129L817.906 105.296L816.21 103.6Z" fill="#C0C0C0"/>
<path d="M775.074 103.6L773.378 105.295L816.215 148.129L817.911 146.434L775.074 103.6Z" fill="#C0C0C0"/>
<path d="M861.101 191.311H815.863V146.077H861.101V191.311ZM818.268 188.913H858.709V148.475H818.268V188.913Z" fill="#C0C0C0"/>
<path d="M859.05 146.434L816.212 189.268L817.908 190.964L860.746 148.13L859.05 146.434Z" fill="#C0C0C0"/>
<path d="M817.908 146.43L816.212 148.126L859.05 190.96L860.746 189.264L817.908 146.43Z" fill="#C0C0C0"/>
<path d="M775.428 191.311H730.19V146.077H775.428V191.311ZM732.589 188.913H773.03V148.475H732.589V188.913Z" fill="#C0C0C0"/>
<path d="M773.376 146.431L730.539 189.265L732.235 190.961L775.072 148.127L773.376 146.431Z" fill="#C0C0C0"/>
<path d="M732.231 146.431L730.535 148.127L773.372 190.961L775.068 189.265L732.231 146.431Z" fill="#C0C0C0"/>
<path d="M732.589 191.311H687.351V146.077H732.589V191.311ZM689.75 188.913H730.191V148.475H689.75V188.913Z" fill="#C0C0C0"/>
<path d="M730.537 146.432L687.7 189.266L689.396 190.961L732.233 148.127L730.537 146.432Z" fill="#C0C0C0"/>
<path d="M689.392 146.432L687.696 148.127L730.533 190.961L732.229 189.266L689.392 146.432Z" fill="#C0C0C0"/>
<path d="M690.05 191.311H643.124L690.05 144.388V191.311ZM648.905 188.913H687.652V150.17L648.905 188.913Z" fill="#C0C0C0"/>
<path d="M687.999 146.431L645.162 189.265L646.858 190.961L689.695 148.127L687.999 146.431Z" fill="#C0C0C0"/>
<path d="M647.217 211.527H644.818V362.566H647.217V211.527Z" fill="#F44336"/>
<path d="M654.38 374.084H639.312C635.007 374.084 631.483 370.56 631.483 366.256V351.189C631.483 346.885 635.007 343.361 639.312 343.361H654.38C658.685 343.361 662.209 346.885 662.209 351.189V366.256C662.209 370.56 658.685 374.084 654.38 374.084Z" fill="#F44336"/>
<path d="M641.576 406.777C631.873 406.777 626.443 398.482 625.503 390.744L627.882 390.456C628.701 397.178 633.338 404.385 641.576 404.385C641.608 404.385 641.64 404.385 641.665 404.385C648.125 404.341 655.045 399.583 655.052 392.567C655.052 384.131 646.488 380.62 646.405 380.582L645.65 380.281V369.147H648.048V378.695C650.415 379.859 657.45 384.029 657.45 392.56C657.45 401.277 649.264 406.726 641.684 406.777C641.646 406.777 641.608 406.777 641.576 406.777Z" fill="#F44336"/>
<path d="M731.968 224.011H607.697C599.689 224.011 593.14 217.462 593.14 209.455C593.14 201.448 599.689 194.899 607.697 194.899H731.968C739.976 194.899 746.525 201.448 746.525 209.455C746.519 217.462 739.97 224.011 731.968 224.011Z" fill="#F44336"/>
<path d="M965.833 664.76H771.527C758.019 664.76 746.96 653.709 746.96 640.195V629.17C746.96 615.663 758.013 604.605 771.527 604.605H965.833C979.341 604.605 990.4 615.656 990.4 629.17V640.195C990.394 653.702 979.341 664.76 965.833 664.76Z" fill="#303030"/>
<path d="M935.952 628.811H837.692C834.725 628.811 832.301 626.388 832.301 623.42C832.301 620.453 834.725 618.029 837.692 618.029H935.952C938.92 618.029 941.344 620.453 941.344 623.42C941.344 626.388 938.92 628.811 935.952 628.811Z" fill="#FB8C00"/>
<path d="M890.074 649.782H837.692C834.725 649.782 832.301 647.358 832.301 644.391C832.301 641.423 834.725 638.999 837.692 638.999H890.074C893.042 638.999 895.466 641.423 895.466 644.391C895.466 647.352 893.042 649.782 890.074 649.782Z" fill="#FB8C00"/>
<path d="M791.258 654.572C801.35 654.572 809.531 646.391 809.531 636.3C809.531 626.209 801.35 618.029 791.258 618.029C781.166 618.029 772.985 626.209 772.985 636.3C772.985 646.391 781.166 654.572 791.258 654.572Z" fill="#FB8C00"/>
<path d="M550.07 545.518C548.976 545.978 547.889 546.439 546.795 546.899C548.49 533.392 548.542 519.764 549.085 506.18C549.258 501.876 547.928 492.788 551.797 490.882C556.805 488.414 562.74 493.511 567.812 491.221C573.543 488.631 572.475 481.948 573.581 476.845C574.509 472.579 580.303 451.82 586.712 462.161C596.383 455.964 604.652 442.105 616.721 440.289C618.922 439.956 621.461 440.768 622.465 442.757C623.053 443.928 623.034 445.303 622.887 446.607C622.542 449.715 621.538 452.747 619.964 455.446C618.915 457.249 617.598 458.931 616.964 460.92C616.331 462.909 616.568 465.378 618.205 466.67C619.632 467.795 621.621 467.712 623.405 468.025C625.19 468.345 627.198 469.592 627.012 471.396C626.942 472.112 626.526 472.739 626.123 473.34C607.991 500.156 599.459 532.868 573.792 554.011C569.904 557.215 565.542 560.234 560.534 560.797C554.675 561.455 548.868 558.552 544.685 554.395C540.502 550.244 537.688 544.942 535.001 539.698" fill="#F44336"/>
<path d="M616.025 590.637C627.403 588.271 639.459 585.284 647.383 576.785C640.789 575.73 634.195 574.675 627.601 573.619C626.712 573.479 625.721 573.274 625.203 572.532C624.358 571.323 625.362 569.699 626.424 568.676C633.21 562.12 643.239 560.534 651.752 556.473C654.272 555.271 656.939 553.48 657.38 550.717C657.841 547.814 655.461 545.064 652.686 544.073C649.916 543.081 646.865 543.414 643.942 543.759C649.609 536.756 655.276 529.753 660.949 522.751C661.992 521.459 663.079 520.064 663.22 518.414C663.514 514.967 659.318 512.55 655.928 513.247C652.539 513.944 649.961 516.617 647.614 519.156C652.801 508.393 656.696 497.003 659.19 485.318C659.958 481.743 660.361 477.42 657.63 474.99C654.943 472.605 650.498 473.538 647.863 475.975C645.222 478.411 643.898 481.903 642.478 485.203C638.532 494.349 633.191 502.893 626.699 510.452C625.957 511.316 625.158 512.198 624.09 512.576C620.815 513.739 618.065 509.621 617.796 506.161C617.528 502.695 618.142 498.749 615.833 496.152C613.198 493.185 608.055 493.997 605.216 496.766C602.376 499.529 601.244 503.564 600.22 507.395C598.506 513.835 596.792 520.269 595.078 526.709C592.302 524.337 589.405 521.9 585.894 520.889C582.382 519.879 578.059 520.717 576.095 523.799C575.097 525.366 574.829 527.266 574.464 529.082C571.279 545.019 559.415 558.034 555.379 573.779C552.36 585.553 556.492 601.062 571.145 599.77C585.715 598.459 601.583 593.643 616.025 590.637Z" fill="#FB8C00"/>
<path d="M562.58 595.466C562.267 595.466 561.954 595.344 561.717 595.095C561.263 594.615 561.276 593.861 561.755 593.4L630.338 527.669C630.818 527.208 631.573 527.227 632.033 527.701C632.487 528.18 632.474 528.935 631.995 529.395L563.412 595.127C563.182 595.351 562.881 595.466 562.58 595.466Z" fill="white"/>
<path d="M586.335 572.698C586.277 572.698 586.22 572.692 586.168 572.686C585.516 572.596 585.056 571.989 585.145 571.336L589.488 540.184C589.577 539.526 590.198 539.072 590.837 539.161C591.49 539.251 591.95 539.858 591.861 540.511L587.518 571.662C587.435 572.264 586.923 572.698 586.335 572.698Z" fill="white"/>
<path d="M604.947 554.855C604.371 554.855 603.866 554.44 603.77 553.858C603.661 553.205 604.102 552.585 604.748 552.476L630.965 548.025C631.617 547.929 632.238 548.351 632.347 549.01C632.455 549.662 632.014 550.283 631.368 550.391L605.151 554.843C605.087 554.849 605.017 554.855 604.947 554.855Z" fill="white"/>
<path d="M554.445 541.553C554.196 541.553 553.946 541.476 553.735 541.316C553.204 540.926 553.089 540.171 553.479 539.641L599.069 477.765C599.459 477.228 600.214 477.119 600.745 477.51C601.275 477.9 601.391 478.654 601 479.185L555.404 541.06C555.174 541.38 554.816 541.553 554.445 541.553Z" fill="white"/>
<path d="M583.572 502.017C583.476 502.017 583.373 502.004 583.271 501.978C582.632 501.812 582.248 501.16 582.414 500.514L589.52 473.25C589.686 472.611 590.339 472.227 590.978 472.394C591.618 472.56 592.001 473.212 591.835 473.858L584.729 501.121C584.589 501.665 584.109 502.017 583.572 502.017Z" fill="white"/>
<path d="M562.663 635.232H304.027C295.559 635.232 288.633 628.306 288.633 619.839V432.544C288.633 424.077 295.559 417.15 304.027 417.15H562.663C571.132 417.15 578.058 424.077 578.058 432.544V619.839C578.058 628.306 571.132 635.232 562.663 635.232Z" fill="#606060"/>
<path d="M555.148 617.044H310.295C302.141 617.044 295.47 610.373 295.47 602.219V441.453C295.47 433.299 302.141 426.628 310.295 426.628H555.155C563.309 426.628 569.98 433.299 569.98 441.453V602.219C569.974 610.373 563.303 617.044 555.148 617.044Z" fill="#202020"/>
<path d="M448.631 625.288H428.331C427.839 625.288 427.436 624.885 427.436 624.392C427.436 623.9 427.839 623.497 428.331 623.497H448.631C449.124 623.497 449.527 623.9 449.527 624.392C449.533 624.885 449.13 625.288 448.631 625.288Z" fill="#303030"/>
<path d="M304.078 424.479C305.195 424.479 306.1 423.575 306.1 422.458C306.1 421.342 305.195 420.438 304.078 420.438C302.962 420.438 302.057 421.342 302.057 422.458C302.057 423.575 302.962 424.479 304.078 424.479Z" fill="#303030"/>
<path d="M312.771 424.479C313.887 424.479 314.792 423.575 314.792 422.458C314.792 421.342 313.887 420.438 312.771 420.438C311.654 420.438 310.75 421.342 310.75 422.458C310.75 423.575 311.654 424.479 312.771 424.479Z" fill="white"/>
<path d="M321.546 424.479C322.662 424.479 323.567 423.575 323.567 422.458C323.567 421.342 322.662 420.438 321.546 420.438C320.43 420.438 319.525 421.342 319.525 422.458C319.525 423.575 320.43 424.479 321.546 424.479Z" fill="#4B369D"/>
<path d="M444.794 534.505H321.929C320.612 534.505 319.531 533.424 319.531 532.107C319.531 530.79 320.612 529.709 321.929 529.709H444.794C446.112 529.709 447.193 530.79 447.193 532.107C447.193 533.424 446.118 534.505 444.794 534.505Z" fill="#303030"/>
<path d="M444.794 545.499H321.929C320.612 545.499 319.531 544.418 319.531 543.101C319.531 541.783 320.612 540.702 321.929 540.702H444.794C446.112 540.702 447.193 541.783 447.193 543.101C447.193 544.418 446.118 545.499 444.794 545.499Z" fill="#303030"/>
<path d="M444.794 556.493H321.929C320.612 556.493 319.531 555.412 319.531 554.094C319.531 552.777 320.612 551.696 321.929 551.696H444.794C446.112 551.696 447.193 552.777 447.193 554.094C447.193 555.412 446.118 556.493 444.794 556.493Z" fill="#303030"/>
<path d="M444.794 568.887H321.929C320.612 568.887 319.531 567.806 319.531 566.489C319.531 565.171 320.612 564.09 321.929 564.09H444.794C446.112 564.09 447.193 565.171 447.193 566.489C447.193 567.806 446.118 568.887 444.794 568.887Z" fill="#303030"/>
<path d="M444.794 579.88H321.929C320.612 579.88 319.531 578.799 319.531 577.482C319.531 576.165 320.612 575.084 321.929 575.084H444.794C446.112 575.084 447.193 576.165 447.193 577.482C447.193 578.799 446.118 579.88 444.794 579.88Z" fill="#303030"/>
<path d="M444.794 590.874H321.929C320.612 590.874 319.531 589.793 319.531 588.476C319.531 587.158 320.612 586.077 321.929 586.077H444.794C446.112 586.077 447.193 587.158 447.193 588.476C447.193 589.793 446.118 590.874 444.794 590.874Z" fill="#303030"/>
<path d="M348.287 508.521H418.437C434.254 508.521 447.193 495.583 447.193 479.768V474.626C447.193 458.81 434.254 445.872 418.437 445.872H348.287C332.47 445.872 319.531 458.81 319.531 474.626V479.768C319.525 495.583 332.47 508.521 348.287 508.521Z" fill="#303030"/>
<path d="M502.958 555.565H517.08C532.897 555.565 545.836 542.628 545.836 526.812V474.626C545.836 458.81 532.897 445.872 517.08 445.872H502.958C487.141 445.872 474.202 458.81 474.202 474.626V526.812C474.196 542.628 487.141 555.565 502.958 555.565Z" fill="#303030"/>
<path d="M487.135 588.009H532.91C540.022 588.009 545.842 582.189 545.842 575.077C545.842 567.966 540.022 562.146 532.91 562.146H487.135C480.022 562.146 474.202 567.966 474.202 575.077C474.196 582.195 480.016 588.009 487.135 588.009Z" fill="#303030"/>
</svg>
