<svg width="1373" height="800" viewBox="50 0 1373 916" fill="none" xmlns="http://www.w3.org/2000/svg">
<g id="ERROR">
<g id="Nature">
<g id="Plant 8">
<path id="Vector" d="M1043.02 496.417C1043.83 491.658 1044.93 486.616 1049.5 483.153C1055.3 478.782 1064.81 478.225 1072.71 479.804C1080.61 481.391 1087.73 484.808 1095.53 487.089C1097.63 487.699 1100.04 488.218 1102.06 487.424C1104.11 486.631 1105.08 484.754 1105.76 483.015C1113.25 463 1105.33 442.008 1105.46 421.856C1105.4 416.371 1106.11 410.315 1109.94 405.624C1119.88 392.725 1123.82 399.712 1132.96 385.517C1139.35 375.601 1140.71 357.004 1151.68 350.52C1174.36 337.103 1173.8 386.936 1175.43 398.362C1178.52 420.04 1208.63 418.942 1202.94 445.22C1200.47 456.631 1192.93 465.937 1187.97 476.173C1183.09 486.448 1181.49 499.819 1191.39 507.691C1197.84 512.817 1209.13 515.723 1210.01 523.206C1210.52 527.615 1206.62 531.132 1202.87 534C1193.52 541.193 1183.71 547.928 1173.44 554.198C1170.84 555.785 1168.08 557.47 1167.17 559.926C1165.92 563.283 1168.51 566.997 1170.41 570.491C1177.42 583.382 1174.44 597.585 1165.3 608.119C1156.22 618.668 1141.67 626.037 1126.61 632.33C1107.25 640.461 1086.79 647.211 1065.35 652.482C1002.45 665.198 1024.2 617.028 1026.88 599.652C1031.76 564.846 1037.14 530.43 1043.02 496.417Z" fill="#FB8C00"/>
<g id="Group">
<path id="Vector_2" d="M1081.32 634.168C1081.15 634.168 1080.97 634.137 1080.81 634.076C1080.07 633.794 1079.7 632.97 1079.98 632.23L1152.36 443.19C1152.65 442.451 1153.48 442.084 1154.21 442.367C1154.95 442.649 1155.32 443.473 1155.03 444.213L1082.65 633.252C1082.44 633.824 1081.9 634.168 1081.32 634.168Z" fill="white"/>
</g>
<g id="Group_2">
<path id="Vector_3" d="M1122.46 526.593C1121.97 526.593 1121.48 526.334 1121.22 525.861L1108.43 503.076C1108.04 502.39 1108.28 501.52 1108.97 501.131C1109.66 500.75 1110.53 500.986 1110.91 501.681L1123.71 524.465C1124.1 525.151 1123.85 526.021 1123.17 526.41C1122.94 526.532 1122.7 526.593 1122.46 526.593Z" fill="white"/>
</g>
<g id="Group_3">
<path id="Vector_4" d="M1132.99 499.903C1132.45 499.903 1131.94 499.598 1131.7 499.072C1131.37 498.355 1131.68 497.508 1132.39 497.173L1156.12 486.219C1156.83 485.891 1157.68 486.196 1158.02 486.921C1158.35 487.638 1158.03 488.485 1157.32 488.82L1133.6 499.774C1133.4 499.865 1133.19 499.903 1132.99 499.903Z" fill="white"/>
</g>
</g>
<g id="Plant 7">
<path id="Vector_5" d="M1038.94 654.885C1033.27 654.13 1027.65 653.314 1023.16 649.835C1020.83 648.035 1019.03 644.389 1021.15 642.36C1022.22 641.338 1023.84 641.231 1025.28 640.911C1030.84 639.675 1026.97 635.091 1023.85 633.573C1018.37 630.903 1011.9 629.065 1008.61 623.931C1008.4 623.611 1008.2 623.252 1008.22 622.871C1008.25 622.299 1008.75 621.872 1009.23 621.559C1012.5 619.438 1018.8 620.667 1020.77 616.83C1025.58 607.455 1004.64 595.914 999.652 591.094C998.698 590.171 997.699 589.171 997.432 587.875C996.905 585.357 999.446 583.13 1001.98 582.672C1005.85 581.978 1009.84 583.664 1013.68 582.451C1016.71 581.498 1018.32 578.256 1018.6 575.274C1019.46 566.303 1013.95 557.524 1013.1 548.675C1012.41 541.437 1015.35 527.005 1025.54 528.919C1030.2 529.797 1032.34 535.044 1034.39 539.324C1036.29 543.29 1038.82 547.691 1042 550.743C1044.32 552.977 1047.49 554.564 1050.71 554.274C1056.96 553.702 1064.36 547.546 1065.94 557.547C1066.42 560.613 1065.77 563.733 1065.87 566.83C1065.97 569.926 1067.1 573.351 1069.9 574.694C1075 577.142 1087.91 568.637 1088.71 578.63C1088.92 581.132 1087.91 583.55 1087.07 585.914C1083.02 597.348 1093.65 595.281 1097.53 602.94C1098.93 605.693 1098.78 609.027 1097.83 611.963C1096.29 616.677 1093.03 620.75 1090.87 625.19C1086.48 634.206 1084.12 644.084 1082.42 653.909C1081.17 661.117 1081.23 674.793 1071.64 676.35C1065.72 677.311 1062.48 668.592 1059.89 664.824C1054.84 657.509 1047.3 655.999 1038.94 654.885Z" fill="#FDC510"/>
<g id="Group_4">
<g id="Group_5">
<path id="Vector_6" d="M1077.85 679.439C1077.26 679.439 1076.71 679.08 1076.5 678.493L1039.27 575.495C1039 574.755 1039.39 573.931 1040.13 573.664C1040.87 573.389 1041.7 573.778 1041.97 574.526L1079.2 677.524C1079.46 678.264 1079.08 679.088 1078.33 679.355C1078.17 679.408 1078.01 679.439 1077.85 679.439Z" fill="white"/>
</g>
<g id="Group_6">
<path id="Vector_7" d="M1052.6 607.814C1052.47 607.814 1052.34 607.799 1052.21 607.76C1051.45 607.547 1051.01 606.754 1051.23 605.998L1057.38 584.305C1057.59 583.542 1058.37 583.1 1059.15 583.321C1059.91 583.534 1060.34 584.328 1060.13 585.083L1053.98 606.776C1053.8 607.402 1053.22 607.814 1052.6 607.814Z" fill="white"/>
</g>
<g id="Group_7">
<path id="Vector_8" d="M1066.49 645.014C1066.36 645.014 1066.23 644.999 1066.1 644.961C1065.33 644.747 1064.9 643.954 1065.11 643.199L1071.26 621.506C1071.48 620.743 1072.26 620.293 1073.03 620.522C1073.8 620.735 1074.23 621.529 1074.02 622.284L1067.87 643.977C1067.68 644.603 1067.1 645.014 1066.49 645.014Z" fill="white"/>
</g>
<g id="Group_8">
<path id="Vector_9" d="M1057.99 628.157C1057.86 628.157 1057.72 628.134 1057.57 628.096L1036.4 621.681C1035.64 621.452 1035.21 620.651 1035.44 619.896C1035.67 619.141 1036.46 618.714 1037.23 618.943L1058.41 625.358C1059.16 625.586 1059.59 626.387 1059.36 627.142C1059.18 627.76 1058.61 628.157 1057.99 628.157Z" fill="white"/>
</g>
</g>
</g>
<g id="Plant 2">
<path id="Vector_10" d="M257.869 532.741C258.311 525.693 260.203 517.287 266.871 514.968C276.668 511.559 283.71 523.946 291.179 531.147C292.888 532.794 294.948 534.289 297.313 534.495C299.671 534.701 301.975 533.588 303.836 532.123C310.352 526.982 312.389 518.057 313.159 509.797C313.938 501.536 313.983 492.848 317.981 485.571C321.972 478.301 331.714 473.328 338.749 477.706C354.58 487.546 359.875 464.137 369.534 456.478C373.6 453.252 379.254 451.513 384.091 453.397C388.836 455.243 391.751 460.056 393.444 464.854C397.29 475.784 396.695 490.025 390.271 499.98C384.228 509.339 370.8 513.061 369.106 525.556C367.939 534.152 374.027 542.825 371.716 551.185C369.785 558.157 362.614 562.512 359.898 569.217C356.243 578.256 361.515 589.24 357.311 598.027C354.572 603.741 348.392 607.173 345.508 612.818C341.961 619.774 344.242 628.134 343.807 635.93C342.884 652.635 327.564 668.104 310.253 666.601C295.459 665.32 288.562 648.356 281.955 636.655C264.239 605.266 255.595 568.729 257.869 532.741Z" fill="#F44336"/>
<g id="Group_9">
<path id="Vector_11" d="M312.9 624.427C312.778 624.427 312.664 624.412 312.542 624.381C311.779 624.183 311.321 623.405 311.519 622.634L333.706 537.356C333.904 536.593 334.682 536.128 335.453 536.334C336.216 536.532 336.674 537.31 336.475 538.08L314.289 623.359C314.113 624 313.533 624.427 312.9 624.427Z" fill="white"/>
</g>
<g id="Group_10">
<path id="Vector_12" d="M325.87 574.557C325.443 574.557 325.016 574.366 324.733 574L306.728 550.529C306.247 549.903 306.369 549.003 306.995 548.523C307.62 548.042 308.521 548.164 309.001 548.79L327.007 572.261C327.487 572.886 327.365 573.786 326.74 574.267C326.48 574.457 326.175 574.557 325.87 574.557Z" fill="white"/>
</g>
<path id="Vector_13" d="M296.542 673.108C289.79 670.255 283.511 663.901 277.156 658.714C263.286 647.379 262.797 632.741 197.672 621.895C167.398 616.853 189.737 584.328 172.968 558.523C167.673 550.376 162.561 541.36 162.966 531.65C163.37 521.94 171.633 511.978 181.253 513.382C187.029 514.221 191.492 518.66 196.406 521.81C201.319 524.961 208.453 526.646 212.527 522.474C209.437 515.944 204.211 510.719 200.114 504.77C196.016 498.828 192.98 491.36 195.124 484.465C198.435 473.809 208.086 480.475 212.16 476.104C217.631 470.246 216.204 454.625 220.248 446.554C229.731 427.63 262.919 420.315 275.31 440.788C289.653 464.487 280.429 497.005 273.471 523.938C263.797 561.383 301.189 573.962 313.411 599.805C322.216 618.439 335.209 652.185 316.135 669.05C308.971 675.404 302.57 675.648 296.542 673.108Z" fill="#FB8C00"/>
<g id="Group_11">
<path id="Vector_14" d="M311.885 681.231C311.367 681.231 310.871 680.949 310.619 680.461L247.287 559.278C246.92 558.576 247.195 557.714 247.889 557.348C248.584 556.982 249.453 557.257 249.82 557.951L313.152 679.134C313.518 679.835 313.243 680.697 312.549 681.064C312.335 681.186 312.114 681.231 311.885 681.231Z" fill="white"/>
</g>
<g id="Group_12">
<path id="Vector_15" d="M280.215 624.008C279.964 624.008 279.704 623.939 279.475 623.802L233.164 595.594C232.493 595.182 232.279 594.305 232.684 593.626C233.096 592.955 233.973 592.741 234.652 593.146L280.963 621.353C281.634 621.765 281.848 622.642 281.444 623.321C281.169 623.764 280.704 624.008 280.215 624.008Z" fill="white"/>
</g>
<g id="Group_13">
<path id="Vector_16" d="M262.797 587.859C262.546 587.859 262.286 587.791 262.057 587.653L215.746 559.446C215.075 559.034 214.861 558.157 215.266 557.478C215.678 556.807 216.555 556.593 217.234 556.997L263.545 585.205C264.216 585.617 264.43 586.494 264.026 587.173C263.751 587.615 263.278 587.859 262.797 587.859Z" fill="white"/>
</g>
<g id="Group_14">
<path id="Vector_17" d="M293.315 649.065C293.224 649.065 293.124 649.057 293.025 649.034C292.255 648.882 291.751 648.127 291.911 647.349L300.845 603.443C300.998 602.673 301.753 602.177 302.532 602.329C303.302 602.482 303.806 603.237 303.645 604.015L294.711 647.921C294.582 648.6 293.979 649.065 293.315 649.065Z" fill="white"/>
</g>
</g>
</g>
<g id="littleNature">
<path id="Plant 6" d="M811.532 606.959C811.731 606.967 811.929 607.013 812.135 607.127C812.768 607.471 813.005 608.256 813.157 608.966C814.538 615.449 814.5 613.863 813.813 622.368C815.263 617.059 814.691 617.989 817.399 613.191C817.926 612.261 818.513 611.307 819.429 610.743C825.349 607.12 819.619 623.176 818.612 625.022C814.897 631.857 807.672 633.55 800.66 631.033C794.511 628.821 788.636 624.038 786.431 617.776C786.233 617.211 786.088 616.502 786.507 616.075C786.797 615.777 787.255 615.739 787.667 615.739C791.383 615.731 794.862 617.623 797.7 620.011C800.538 622.398 802.888 625.32 805.558 627.89C807.45 629.713 811.631 629.606 814.241 629.927C818.681 630.461 820.436 628.745 824.289 626.471C825.128 625.976 826.043 625.526 827.02 625.533C827.996 625.541 829.026 626.159 829.21 627.112C829.316 627.684 829.118 628.264 828.874 628.79C825.715 635.457 817.117 634.565 813.325 629.24C809.709 624.168 807.382 615.716 809.114 609.629C809.472 608.401 810.441 606.937 811.532 606.959Z" fill="#FB8C00"/>
<path id="Plant 5" d="M252.597 657.15C252.787 657.204 252.963 657.311 253.131 657.486C253.642 658.035 253.642 658.981 253.581 659.813C253.009 667.486 253.444 665.678 250.285 675.114C253.253 669.477 252.421 670.385 256.45 665.655C257.235 664.732 258.082 663.802 259.128 663.398C265.925 660.797 255.656 677.486 254.146 679.317C248.545 686.098 241.053 686.19 235.011 681.582C229.708 677.54 225.428 670.652 225.138 663.031C225.115 662.345 225.184 661.506 225.71 661.132C226.077 660.873 226.527 660.941 226.931 661.041C230.525 661.964 233.34 664.977 235.385 668.394C237.429 671.811 238.848 675.694 240.68 679.271C241.977 681.811 246.051 682.742 248.484 683.756C252.627 685.48 254.825 683.977 259.219 682.383C260.18 682.04 261.195 681.758 262.141 682.017C263.087 682.276 263.904 683.222 263.797 684.351C263.736 685.022 263.37 685.633 262.98 686.159C257.968 692.894 249.904 689.721 247.798 682.757C245.791 676.113 246.02 665.983 249.484 659.546C250.171 658.256 251.544 656.853 252.597 657.15Z" fill="#F44336"/>
<path id="Plant 4" d="M638.312 554.885C638.93 548.584 638.915 542.741 640.983 536.593C641.677 534.518 642.669 532.306 644.637 531.361C645.011 531.177 645.453 531.055 645.827 531.223C646.155 531.368 646.361 531.696 646.529 532.024C657.241 552.543 628.493 564.084 615.378 548.653C614.569 547.699 613.806 546.608 613.692 545.358C613.486 543.069 615.668 541.094 617.949 540.827C620.23 540.56 622.466 541.597 624.35 542.901C629.34 546.357 632.659 551.681 635.833 556.845C631.408 550.194 629.126 542.146 629.393 534.168C629.432 532.97 629.836 531.437 631.034 531.338C631.606 531.292 632.132 531.62 632.59 531.971C635.856 534.48 637.694 538.5 638.381 542.566C639.068 546.624 638.709 550.789 638.312 554.885Z" fill="#F44336"/>
<path id="Plant 3" d="M993.083 688.447C998.462 682.909 1002.89 677.303 1009.5 673.07C1011.73 671.643 1014.33 670.324 1016.89 670.995C1017.37 671.124 1017.88 671.353 1018.1 671.819C1018.3 672.223 1018.23 672.703 1018.15 673.146C1012.45 701.415 976.947 689.347 976.527 664.023C976.504 662.452 976.626 660.796 977.473 659.515C979.029 657.166 982.562 657.021 984.881 658.6C987.201 660.179 988.49 662.97 989.245 665.739C991.244 673.062 990.275 680.827 989.283 688.325C990.245 678.401 994.25 668.851 1000.58 661.422C1001.54 660.308 1003.08 659.164 1004.27 660.026C1004.84 660.438 1005.08 661.185 1005.23 661.887C1006.35 666.922 1004.99 672.253 1002.53 676.693C1000.08 681.14 996.577 684.839 993.083 688.447Z" fill="#FDC510"/>
<path id="Plant 1" d="M1199.15 644.435C1202.5 639.202 1205.39 633.138 1206.13 626.357C1206.3 624.717 1206.33 622.909 1205.58 621.582C1204.93 620.43 1203.84 619.889 1202.78 619.591C1195.26 617.471 1188.2 624.74 1182.77 631.933C1173.18 644.641 1164.62 658.699 1157.28 673.794C1161.68 664.763 1163.99 647.44 1162.95 636.822C1162.91 636.403 1162.84 635.953 1162.59 635.686C1162.34 635.419 1161.98 635.434 1161.66 635.51C1159.35 636.098 1157.89 639.065 1156.78 641.811C1153.35 650.316 1150.36 660.14 1148.37 669.683C1149.62 663.687 1145.92 656.472 1142.57 652.902C1136.56 646.517 1137.84 655.426 1139.15 660.659C1140.42 665.793 1148.91 685.869 1154.96 681.384C1156.07 680.56 1156.35 676.075 1157.25 674.633C1158.84 672.131 1161.05 671.308 1163.32 670.377C1169.42 667.875 1175.78 666.845 1181.52 662.909C1188.22 658.317 1194.28 652.055 1199.15 644.435Z" fill="#F44336"/>
<path id="Plant" d="M423.291 614.603C423.489 614.572 423.695 614.595 423.909 614.671C424.588 614.915 424.947 615.648 425.206 616.327C427.586 622.513 427.304 620.949 427.968 629.454C428.563 623.977 428.143 624.992 430.066 619.828C430.44 618.821 430.867 617.791 431.683 617.089C436.963 612.581 433.827 629.34 433.125 631.315C430.531 638.646 423.665 641.453 416.341 640.072C409.924 638.859 403.363 635.053 400.204 629.218C399.922 628.691 399.662 628.012 400.013 627.524C400.25 627.189 400.692 627.074 401.104 627.013C404.767 626.426 408.505 627.738 411.686 629.652C414.868 631.567 417.645 634.076 420.689 636.197C422.848 637.7 426.953 636.937 429.585 636.838C434.056 636.67 435.513 634.694 438.962 631.849C439.717 631.231 440.549 630.636 441.518 630.499C442.487 630.362 443.601 630.796 443.929 631.712C444.127 632.261 444.02 632.864 443.86 633.42C441.792 640.499 433.156 640.972 428.578 636.311C424.206 631.864 420.575 623.893 421.33 617.608C421.475 616.349 422.208 614.755 423.291 614.603Z" fill="#FB8C00"/>
</g>
<g id="numberShadow">
<path id="Vector_18" d="M726.73 581.284C789.164 581.284 839.776 574.444 839.776 566.006C839.776 557.568 789.164 550.728 726.73 550.728C664.297 550.728 613.684 557.568 613.684 566.006C613.684 574.444 664.297 581.284 726.73 581.284Z" fill="#303030"/>
<path id="Vector_19" d="M946.047 655.861C1008.48 655.861 1059.09 649.021 1059.09 640.583C1059.09 632.145 1008.48 625.304 946.047 625.304C883.614 625.304 833.001 632.145 833.001 640.583C833.001 649.021 883.614 655.861 946.047 655.861Z" fill="#303030"/>
<path id="Vector_20" d="M505.178 678.013C567.612 678.013 618.224 671.172 618.224 662.734C618.224 654.296 567.612 647.456 505.178 647.456C442.744 647.456 392.132 654.296 392.132 662.734C392.132 671.172 442.744 678.013 505.178 678.013Z" fill="#303030"/>
</g>
<g id="numbers">
<path id="Vector_21" d="M847.367 378.011C847.367 399.918 846.032 418.759 843.362 434.518C840.684 450.285 835.748 464.579 828.53 477.401C819.444 493.168 807.687 505.327 793.252 513.87C778.824 522.421 762.787 526.692 745.148 526.692C724.838 526.692 706.634 520.949 690.528 509.461C674.423 497.974 662.299 482.077 654.143 461.764C650.001 450.674 646.956 438.416 645.026 424.991C643.088 411.566 642.119 397.035 642.119 381.406C642.119 361.238 643.188 343.068 645.324 326.897C647.46 310.734 650.802 296.844 655.349 285.219C663.23 265.982 674.69 251.321 689.727 241.237C704.765 231.153 722.702 226.111 743.546 226.111C757.309 226.111 769.806 228.346 781.029 232.824C792.252 237.301 802.102 243.846 810.593 252.465C819.077 261.085 826.257 271.733 832.139 284.426C842.286 306.462 847.367 337.66 847.367 378.011ZM792.443 373.999C792.443 349.552 790.97 329.544 788.033 313.976C785.088 298.415 780.152 286.661 773.201 278.705C766.251 270.757 756.63 266.783 744.339 266.783C726.7 266.783 714.439 275.669 707.557 293.434C700.676 311.199 697.235 338.591 697.235 375.593C697.235 400.712 698.707 421.284 701.645 437.317C704.582 453.351 709.526 465.472 716.476 473.687C723.419 481.902 732.841 486.013 744.736 486.013C757.027 486.013 766.648 481.742 773.598 473.191C780.541 464.64 785.424 452.42 788.231 436.516C791.039 420.628 792.443 399.781 792.443 373.999Z" fill="#606060"/>
<path id="Vector_22" d="M978.236 584.084V546.807H877.619C864.923 546.807 855.402 543.939 849.054 538.187C842.706 532.444 839.532 524.633 839.532 514.739C839.532 512.199 839.998 509.629 840.936 507.02C841.874 504.411 843.278 501.681 845.148 498.805C847.017 495.937 848.955 493.16 850.961 490.491C852.968 487.821 855.44 484.549 858.377 480.666L964.61 338.591C971.553 329.239 977.267 322.458 981.746 318.247C986.217 314.037 991.595 311.931 997.882 311.931C1018.19 311.931 1028.35 323.556 1028.35 346.798V501.909H1036.97C1047.25 501.909 1055.51 503.313 1061.72 506.12C1067.93 508.927 1071.04 515.075 1071.04 524.556C1071.04 532.306 1068.5 537.951 1063.43 541.49C1058.35 545.029 1050.73 546.799 1040.58 546.799H1028.35V584.076C1028.35 594.366 1026.08 602.009 1021.54 607.021C1017 612.032 1010.91 614.534 1003.31 614.534C995.822 614.534 989.772 611.963 985.164 606.822C980.54 601.681 978.236 594.099 978.236 584.084ZM892.046 501.917H978.236V385.486L892.046 501.917Z" fill="#606060"/>
<path id="Vector_23" d="M538.839 608.371V571.094H438.214C425.519 571.094 415.997 568.226 409.649 562.474C403.302 556.731 400.128 548.92 400.128 539.026C400.128 536.486 400.593 533.916 401.532 531.307C402.463 528.698 403.866 525.968 405.743 523.092C407.612 520.224 409.55 517.447 411.557 514.778C413.563 512.108 416.035 508.836 418.973 504.953L525.206 362.878C532.156 353.526 537.863 346.745 542.341 342.534C546.82 338.324 552.191 336.219 558.478 336.219C578.787 336.219 588.942 347.843 588.942 371.085V526.197H597.563C607.856 526.197 616.103 527.6 622.321 530.407C628.531 533.214 631.644 539.362 631.644 548.844C631.644 556.593 629.104 562.238 624.03 565.777C618.949 569.317 611.335 571.086 601.18 571.086H588.957V608.363C588.957 618.653 586.684 626.296 582.144 631.308C577.597 636.319 571.524 638.821 563.902 638.821C556.418 638.821 550.375 636.25 545.759 631.109C541.143 625.976 538.839 618.386 538.839 608.371ZM452.649 526.204H538.839V409.773L452.649 526.204Z" fill="#606060"/>
</g>
</g>
</svg>
