<svg width="1000" height="1000" viewBox="400 250 1200 813" fill="none" xmlns="http://www.w3.org/2000/svg">
<g id="WelcomeUsers">
<rect width="1000" height="1000" fill="#202020"/>
<g id="WelcomeUser">
<g id="browser">
<path id="Vector" opacity="0.26" d="M1161.63 506.571L848.615 615.093C828.754 615.093 812.655 598.993 812.655 579.133V424.577C812.655 404.717 828.754 388.618 848.615 388.618L1161.63 280.096C1181.49 280.096 1197.59 296.195 1197.59 316.056V470.611C1197.59 490.471 1181.49 506.571 1161.63 506.571Z" fill="#A7ADFF"/>
<path id="Vector_2" opacity="0.13" d="M1142.31 497.452L829.295 605.974C809.435 605.974 793.335 589.874 793.335 570.014V415.467C793.335 395.607 809.435 379.507 829.295 379.507L1142.31 270.986C1162.17 270.986 1178.27 287.085 1178.27 306.945V461.492C1178.27 481.353 1162.17 497.452 1142.31 497.452Z" fill="#A7ADFF"/>
</g>
<g id="outsiteContainerUp">
<path id="Vector_3" d="M1172.9 228.383L1076.32 261.867C1070.2 261.867 1065.23 256.898 1065.23 250.771V203.081C1065.23 196.953 1070.2 191.984 1076.32 191.984L1172.9 158.5C1179.03 158.5 1184 163.47 1184 169.597V217.287C1184 223.414 1179.03 228.383 1172.9 228.383Z" fill="#A7ADFF"/>
<path id="Vector_4" d="M1136.29 215.732L1044.85 247.432C1039.04 247.432 1034.35 242.725 1034.35 236.927V191.781C1034.35 185.975 1039.05 181.276 1044.85 181.276L1136.29 149.576C1142.1 149.576 1146.8 154.283 1146.8 160.081V205.227C1146.8 211.033 1142.09 215.732 1136.29 215.732Z" fill="#E3E5FC"/>
</g>
<g id="outsiteContainerDown">
<path id="Vector_5" d="M1167.77 583.747L1076.32 615.448C1070.52 615.448 1065.82 610.74 1065.82 604.943V559.797C1065.82 553.991 1070.53 549.292 1076.32 549.292L1167.77 517.591C1173.57 517.591 1178.27 522.299 1178.27 528.096V573.242C1178.27 579.048 1173.57 583.747 1167.77 583.747Z" fill="#E3E5FC"/>
<path id="Vector_6" d="M1016.02 599.129L919.444 632.612C913.317 632.612 908.347 627.643 908.347 621.516V573.834C908.347 567.707 913.317 562.738 919.444 562.738L1016.02 529.254C1022.15 529.254 1027.12 534.223 1027.12 540.351V588.041C1027.12 594.159 1022.15 599.129 1016.02 599.129Z" fill="#A7ADFF"/>
</g>
<g id="pageContent">
<path id="Vector_7" opacity="0.39" d="M953.958 451.25L857.378 484.733C851.251 484.733 846.282 479.764 846.282 473.637V425.947C846.282 419.82 851.251 414.85 857.378 414.85L953.958 381.367C960.085 381.367 965.055 386.336 965.055 392.463V440.153C965.055 446.28 960.085 451.25 953.958 451.25Z" fill="white"/>
<path id="Vector_8" opacity="0.51" d="M953.958 538.398L857.378 571.882C851.251 571.882 846.282 566.913 846.282 560.785V513.095C846.282 506.968 851.251 501.999 857.378 501.999L953.958 468.515C960.085 468.515 965.055 473.485 965.055 479.612V527.302C965.055 533.429 960.085 538.398 953.958 538.398Z" fill="white"/>
</g>
<g id="line">
<path id="Line" opacity="0.51" d="M1000.35 508.811C997.989 508.811 996.054 506.875 996.054 504.517V432.53C996.054 430.172 997.989 428.237 1000.35 428.237C1002.71 428.237 1004.64 430.172 1004.64 432.53V504.517C1004.64 506.875 1002.71 508.811 1000.35 508.811Z" fill="white"/>
</g>
<g id="text">
<path id="Vector_9" opacity="0.51" d="M1023.44 368.014C1022.65 365.791 1023.82 363.324 1026.05 362.529L1140.27 321.769C1142.5 320.975 1144.96 322.149 1145.76 324.372C1146.55 326.595 1145.38 329.062 1143.16 329.857L1028.93 370.617C1026.71 371.411 1024.24 370.237 1023.44 368.014Z" fill="white"/>
<path id="Vector_10" opacity="0.51" d="M1023.44 383.581C1022.65 381.358 1023.82 378.89 1026.05 378.096L1140.27 337.336C1142.5 336.542 1144.96 337.716 1145.76 339.939C1146.55 342.162 1145.38 344.629 1143.16 345.424L1028.93 386.184C1026.71 386.97 1024.24 385.804 1023.44 383.581Z" fill="white"/>
<path id="Vector_11" opacity="0.51" d="M1023.44 399.14C1022.65 396.917 1023.82 394.449 1026.05 393.655L1140.27 352.895C1142.5 352.1 1144.96 353.275 1145.76 355.498C1146.55 357.72 1145.38 360.188 1143.16 360.983L1028.93 401.743C1026.71 402.537 1024.24 401.362 1023.44 399.14Z" fill="white"/>
<path id="Vector_12" opacity="0.51" d="M1023.44 414.707C1022.65 412.484 1023.82 410.016 1026.05 409.222L1140.27 368.462C1142.5 367.667 1144.96 368.842 1145.76 371.065C1146.55 373.288 1145.38 375.755 1143.16 376.55L1028.93 417.31C1026.71 418.096 1024.24 416.929 1023.44 414.707Z" fill="white"/>
<path id="Vector_13" opacity="0.51" d="M1023.44 430.265C1022.65 428.043 1023.82 425.575 1026.05 424.781L1140.27 384.02C1142.5 383.226 1144.96 384.401 1145.76 386.623C1146.55 388.846 1145.38 391.314 1143.16 392.108L1028.93 432.868C1026.71 433.663 1024.24 432.488 1023.44 430.265Z" fill="white"/>
<path id="Vector_14" opacity="0.51" d="M1023.44 445.824C1022.65 443.601 1023.82 441.134 1026.05 440.339L1140.27 399.579C1142.5 398.785 1144.96 399.959 1145.76 402.182C1146.55 404.405 1145.38 406.872 1143.16 407.667L1028.93 448.427C1026.71 449.221 1024.24 448.047 1023.44 445.824Z" fill="white"/>
<path id="Vector_15" opacity="0.51" d="M1023.44 461.391C1022.65 459.168 1023.82 456.701 1026.05 455.906L1140.27 415.146C1142.5 414.352 1144.96 415.527 1145.76 417.749C1146.55 419.972 1145.38 422.44 1143.16 423.234L1028.93 463.994C1026.71 464.78 1024.24 463.614 1023.44 461.391Z" fill="white"/>
<path id="Vector_16" opacity="0.51" d="M1023.44 476.95C1022.65 474.727 1023.82 472.259 1026.05 471.465L1140.27 430.705C1142.5 429.91 1144.96 431.085 1145.76 433.308C1146.55 435.53 1145.38 437.998 1143.16 438.793L1028.93 479.553C1026.71 480.347 1024.24 479.172 1023.44 476.95Z" fill="white"/>
<path id="Vector_17" opacity="0.51" d="M1023.44 492.517C1022.65 490.294 1023.82 487.826 1026.05 487.032L1140.27 446.272C1142.5 445.478 1144.96 446.652 1145.76 448.875C1146.55 451.098 1145.38 453.565 1143.16 454.36L1028.93 495.12C1026.71 495.906 1024.24 494.739 1023.44 492.517Z" fill="white"/>
<path id="Vector_18" opacity="0.51" d="M1023.44 508.075C1022.65 505.853 1023.82 503.385 1026.05 502.591L1140.27 461.831C1142.5 461.036 1144.96 462.211 1145.76 464.434C1146.55 466.656 1145.38 469.124 1143.16 469.918L1028.93 510.678C1026.71 511.473 1024.24 510.298 1023.44 508.075Z" fill="white"/>
</g>
<g id="Group">
<g id="Group_2">
<path id="Vector_19" d="M971.596 243.933C972.661 243.274 973.777 242.683 974.909 242.159C989.995 235.237 1007.89 241.88 1014.82 256.965C1021.75 272.05 1015.1 289.95 1000.02 296.872L997.009 290.313C1008.48 285.048 1013.52 271.442 1008.27 259.974C1003 248.505 989.395 243.46 977.926 248.717C977.064 249.114 976.211 249.57 975.399 250.069L971.596 243.933Z" fill="#E3E5FC"/>
</g>
<g id="Group_3">
<path id="Vector_20" d="M989.614 297.675L1002.93 298.925L997.356 286.756L989.614 297.675Z" fill="#E3E5FC"/>
</g>
<g id="Group_4">
<path id="Vector_21" d="M987.062 302.559C985.997 303.218 984.881 303.81 983.749 304.334C968.664 311.255 950.756 304.613 943.834 289.527C936.913 274.442 943.555 256.542 958.64 249.621L961.649 256.179C950.181 261.444 945.135 275.05 950.392 286.519C955.657 297.987 969.264 303.032 980.732 297.776C981.594 297.378 982.447 296.922 983.259 296.424L987.062 302.559Z" fill="#E3E5FC"/>
</g>
<g id="Group_5">
<path id="Vector_22" d="M969.052 248.818L955.725 247.567L961.303 259.729L969.052 248.818Z" fill="#E3E5FC"/>
</g>
</g>
<g id="Touch">
<path id="Vector_23" opacity="0.36" d="M1000.35 410.236C1012.52 410.236 1022.4 400.364 1022.4 388.187C1022.4 376.009 1012.52 366.138 1000.35 366.138C988.17 366.138 978.298 376.009 978.298 388.187C978.298 400.364 988.17 410.236 1000.35 410.236Z" fill="#F44E4E"/>
<path id="Vector_24" d="M1000.35 399.216C1006.44 399.216 1011.38 394.278 1011.38 388.187C1011.38 382.096 1006.44 377.158 1000.35 377.158C994.256 377.158 989.318 382.096 989.318 388.187C989.318 394.278 994.256 399.216 1000.35 399.216Z" fill="#F44E4E"/>
<path id="Vector_25" opacity="0.36" d="M1000.35 403.779C1008.96 403.779 1015.94 396.798 1015.94 388.187C1015.94 379.575 1008.96 372.594 1000.35 372.594C991.736 372.594 984.755 379.575 984.755 388.187C984.755 396.798 991.736 403.779 1000.35 403.779Z" fill="#F44E4E"/>
</g>
<g id="Characters">
<g id="Man">
<g id="Head">
<path id="Neck" d="M718.686 308.298L695.428 377.192L634.791 383.04C634.791 383.04 681.137 344.055 687.518 299.61C693.898 255.165 718.686 308.298 718.686 308.298Z" fill="#D4A79A"/>
<path id="Face" d="M807.508 178.826C807.508 178.826 815.029 197.951 789.896 243.148C764.762 288.345 734.346 324.448 720.554 317.459C682.43 298.14 676.227 265.662 669.06 237.274C660.271 202.464 714.765 138.725 714.765 138.725L751.798 130.333L807.508 178.826Z" fill="#EAC2AB"/>
<path id="Hair" d="M857.251 178.657C861.477 167.146 860.801 154.224 852.392 141.784C849.958 138.184 846.417 135.344 842.293 134.617C839.191 134.068 835.819 134.71 832.963 133.367C824.385 129.361 827.005 115.797 819.407 110.777C813.736 107.033 806.198 111.005 799.428 110.726C794.315 110.515 789.726 107.844 785.188 105.486C772.41 98.852 761.652 88.8289 748.206 83.268C736.856 78.5776 724.255 76.4817 712.052 79.2199C699.316 82.0764 688.321 90.7896 680.554 102.232C675.914 109.078 672.762 117.259 672.635 125.558C672.737 118.738 659.401 122.372 656.84 124.366C646.825 132.158 639.65 153.126 640.326 165.625C640.859 175.521 643.673 184.944 643.91 194.9C644.425 216.678 642.084 252.934 674.334 253.526C673.48 242.438 672.711 231.138 675.052 220.135C679.236 200.537 687.949 174.634 706.051 163.495C744.276 139.992 757.139 201.128 786.05 212.698C812.967 223.49 847.676 204.72 857.251 178.657Z" fill="#4B369D"/>
<path id="Ear" d="M684.957 184.944C684.957 184.944 674.773 164.002 669.246 190.091C663.728 216.188 675.678 225.222 675.678 225.222L684.957 184.944Z" fill="#EAC2AB"/>
</g>
<path id="Body 1" d="M749.473 553.94C746.71 518.192 741.766 480.381 733.492 444.599C727.095 416.938 721.086 379.06 693.873 363.298C642.904 333.77 610.105 406.67 601.104 445.038C590.845 488.748 592.146 534.798 591.673 579.412C591.25 619.42 585.622 663.51 591.064 702.833C592.028 709.772 594.563 716.887 599.997 721.307C613.815 732.548 628.064 717.648 639.692 711.022C650.569 704.819 662.088 705.842 673.641 701.675C683.791 698.016 688.785 690.427 697.279 684.528C719.556 669.045 743.541 693.951 767.686 689.286C820.168 679.144 780.1 693.452 758.981 588.015C756.826 577.274 750.454 566.668 749.473 553.94Z" fill="#F44E4E"/>
<path id="Arm" d="M885.909 475.141C905.846 462.287 913.57 433.435 932.011 417.969C939.524 411.673 948.431 407.937 957.263 404.481C969.872 399.537 982.608 394.982 995.437 390.824C994.634 397.382 989.58 402.241 984.332 405.14C979.084 408.039 973.278 409.687 968.393 413.321C966.238 414.918 964.26 416.963 963.145 419.592C960.635 425.499 963.069 432.598 962.012 439.046C960.026 451.14 947.62 456.075 938.112 461.991C918.48 474.203 905.795 498.264 885.335 508.574C885.335 508.574 731.794 636.06 712.863 632.536C693.932 629.012 667.81 455.129 667.81 455.129C667.81 455.129 649.792 365.512 697.127 408.444C744.462 451.376 715.322 593.99 738.715 579.268C762.091 564.538 885.909 475.141 885.909 475.141Z" fill="#EAC2AB"/>
<path id="Body" d="M731.21 479.435C731.21 479.435 725.776 368.978 679.962 378.096C634.149 387.215 663.567 511.203 663.567 511.203L738.326 495.196L731.21 479.435Z" fill="#D7384E"/>
</g>
</g>
<g id="Button">
<g id="Group_6">
<path id="Vector_26" d="M834.526 749.678H525.314C511.556 749.678 500.299 738.421 500.299 724.662V689.395C500.299 675.637 511.556 664.38 525.314 664.38H834.526C848.285 664.38 859.542 675.637 859.542 689.395V724.662C859.533 738.421 848.276 749.678 834.526 749.678Z" fill="#E3E5FC"/>
</g>
<g id="Group_7">
<path id="Vector_27" d="M672.5 770.983H465.725C456.522 770.983 449 763.453 449 754.258V730.679C449 721.476 456.53 713.955 465.725 713.955H672.5C681.703 713.955 689.225 721.485 689.225 730.679V754.258C689.225 763.462 681.695 770.983 672.5 770.983Z" fill="#F44E4E"/>
<g id="Group_8">
<path id="Vector_28" d="M661.818 743.872L661.057 744.801C660.761 745.165 660.221 745.215 659.857 744.92L642.608 730.874C642.245 730.578 642.194 730.037 642.49 729.674L643.251 728.744C643.546 728.381 644.087 728.33 644.451 728.626L661.7 742.672C662.054 742.967 662.114 743.508 661.818 743.872Z" fill="white"/>
<path id="Vector_29" d="M661.818 743.136L661.057 742.207C660.761 741.843 660.221 741.793 659.857 742.088L642.608 756.134C642.245 756.43 642.194 756.971 642.49 757.334L643.251 758.264C643.546 758.627 644.087 758.678 644.451 758.382L661.7 744.336C662.054 744.032 662.114 743.491 661.818 743.136Z" fill="white"/>
</g>
<g id="Group_9">
<path id="Vector_30" d="M637.732 743.872L636.971 744.801C636.675 745.165 636.135 745.215 635.771 744.92L618.522 730.874C618.159 730.578 618.108 730.037 618.404 729.674L619.165 728.744C619.46 728.381 620.001 728.33 620.365 728.626L637.614 742.672C637.977 742.967 638.028 743.508 637.732 743.872Z" fill="white"/>
<path id="Vector_31" d="M637.732 743.136L636.971 742.207C636.675 741.843 636.135 741.793 635.771 742.088L618.522 756.134C618.159 756.43 618.108 756.971 618.404 757.334L619.165 758.264C619.46 758.627 620.001 758.678 620.365 758.382L637.614 744.336C637.977 744.032 638.028 743.491 637.732 743.136Z" fill="white"/>
</g>
<g id="Group_10">
<path id="Vector_32" d="M611.449 743.872L610.689 744.801C610.393 745.165 609.852 745.215 609.488 744.92L592.24 730.874C591.876 730.578 591.825 730.037 592.121 729.674L592.882 728.744C593.178 728.381 593.719 728.33 594.082 728.626L611.331 742.672C611.694 742.967 611.745 743.508 611.449 743.872Z" fill="white"/>
<path id="Vector_33" d="M611.449 743.136L610.688 742.207C610.392 741.843 609.852 741.793 609.488 742.088L592.239 756.134C591.876 756.43 591.825 756.971 592.121 757.334L592.882 758.264C593.177 758.627 593.718 758.678 594.082 758.382L611.331 744.336C611.694 744.032 611.745 743.491 611.449 743.136Z" fill="white"/>
</g>
</g>
</g>
</g>
</g>
</svg>
